<svg width="28" height="28" viewBox="0 0 28 28" fill="none" xmlns="http://www.w3.org/2000/svg">
<path d="M23.9648 0.769203C23.7198 0.338281 23.3034 0.203438 23.0118 0.139355L22.9831 0.132975L22.4968 0.200505L22.4627 0.226438C22.4529 0.233923 22.4431 0.241869 22.4339 0.249752C22.4276 0.255336 22.4182 0.262757 22.4175 0.263809C20.5912 1.15995 18.8679 2.35363 17.2944 3.81151C15.9602 5.04821 14.8709 6.47042 13.8926 7.82351C13.4439 8.44403 12.9877 8.87718 12.4576 9.18585C11.8424 9.54402 11.3158 10.0406 10.7494 10.7967C9.16768 12.9081 7.54828 15.0465 5.98183 17.1149C5.40127 17.8814 4.82071 18.6478 4.24067 19.4147C4.22992 19.4289 4.21911 19.4427 4.20836 19.4569C4.17002 19.5065 4.13047 19.5577 4.09513 19.6154C3.96048 19.8333 3.98499 20.0607 4.16388 20.2564C4.21048 20.3069 4.2675 20.3409 4.31781 20.3707C4.33526 20.381 4.3589 20.3951 4.37509 20.4065C4.35686 20.4448 4.31131 20.4969 4.27305 20.5403C4.24129 20.5763 4.20874 20.6133 4.17947 20.6537C4.17277 20.6631 4.16554 20.6721 4.15785 20.6812C4.13974 20.7035 4.11971 20.7289 4.10137 20.7597C4.07386 20.8059 4.0712 20.8105 4.01132 20.7967C3.82438 20.7534 3.62393 20.769 3.41618 20.844C2.97597 21.0026 2.70454 21.3418 2.58704 21.8801L2.58059 21.9083L2.64554 22.376L2.65562 22.3977C2.80757 22.7285 3.07179 22.9447 3.30751 23.1221C4.24337 23.825 5.19263 24.543 6.1103 25.2371C6.54469 25.5659 6.97954 25.8946 7.41433 26.2228L7.42328 26.2296C7.51067 26.2957 7.6007 26.3637 7.70219 26.4194C7.93178 26.5457 8.19179 26.5893 8.44096 26.5547C8.65915 26.5244 8.86901 26.434 9.04212 26.286C9.4567 25.9326 9.59631 25.4789 9.42525 25.041C9.33474 24.8101 9.38714 24.6954 9.52999 24.5399C9.57176 24.4945 9.60845 24.4465 9.63933 24.3975C10.1154 24.7309 10.2856 24.7011 10.645 24.2258C11.2466 23.4305 11.8482 22.6356 12.4502 21.8407C13.8163 20.0362 15.229 18.1701 16.6143 16.3313C16.8204 16.0578 16.9932 15.8326 17.1316 15.6523C17.8482 14.7181 17.8583 14.6992 18.2157 13.6217C18.2908 13.396 18.3841 13.1146 18.5032 12.7678C18.5422 12.6545 18.594 12.5564 18.6617 12.4669C19.2177 11.7368 19.7142 11.0809 20.1803 10.4608C22.1373 7.8563 23.4496 4.91409 24.0797 1.71517C24.1264 1.47787 24.1655 1.12196 23.9648 0.769203ZM23.0961 1.35384C23.0951 1.36057 23.0943 1.36822 23.093 1.37593C23.0871 1.42151 23.0794 1.47816 23.0687 1.53335C22.5101 4.36856 21.3831 7.00194 19.7179 9.36006C19.6997 9.38565 19.6869 9.40204 19.678 9.41269C19.6683 9.40698 19.6553 9.39842 19.6379 9.38482C18.4162 8.44933 17.2122 7.54249 16.0928 6.70209C16.0728 6.68697 16.0585 6.67576 16.0484 6.66728C16.0539 6.65945 16.061 6.64951 16.071 6.63681C17.9081 4.36601 20.1539 2.55144 22.7466 1.24314C22.8475 1.1924 22.9407 1.18134 23.003 1.21273C23.0582 1.24086 23.0836 1.30094 23.0956 1.35391L23.0961 1.35384ZM4.95536 21.9521C4.77949 22.1616 4.80591 22.4571 5.01852 22.6546C5.05863 22.6924 5.10003 22.7224 5.14037 22.7517C5.15294 22.7608 5.16558 22.7703 5.17815 22.7794L6.05312 23.4408C6.78226 23.992 7.5114 24.5432 8.24014 25.0949C8.25277 25.1045 8.26587 25.1139 8.27857 25.124C8.32905 25.1617 8.37729 25.1969 8.40941 25.2349C8.47918 25.3166 8.47957 25.3872 8.41112 25.4711C8.3495 25.5465 8.28305 25.56 8.18877 25.5156C8.16104 25.5025 8.12939 25.4782 8.09609 25.4522C8.0855 25.4438 8.07497 25.4358 8.06444 25.4279C6.6415 24.3526 5.21856 23.2774 3.79634 22.2006C3.74001 22.158 3.69132 22.1196 3.66264 22.0793C3.61341 22.0098 3.63508 21.9385 3.6468 21.911C3.67205 21.8519 3.72291 21.8109 3.78314 21.8002C3.83491 21.7963 3.88717 21.8163 3.95363 21.8505C4.24932 22.0016 4.47314 21.9507 4.68039 21.6855C4.87323 21.4387 5.03168 21.2292 5.17801 21.0275C6.33732 21.9076 7.56396 22.8349 8.8247 23.7838C8.73906 23.9101 8.65069 24.0406 8.61052 24.0669C8.56364 24.0551 8.43617 23.9583 8.31252 23.8653L5.80626 21.9719C5.7931 21.962 5.77941 21.9516 5.76619 21.9412C5.72289 21.9077 5.6742 21.8692 5.61849 21.8378C5.37409 21.6998 5.13249 21.7414 4.95536 21.9521ZM5.23504 19.7925C5.23789 19.7893 5.24028 19.7861 5.24273 19.7834C5.25692 19.7668 5.27111 19.7503 5.28431 19.7333C6.58717 18.0097 7.89102 16.2863 9.19441 14.5631L9.90542 13.623C10.0846 13.3862 10.2647 13.1496 10.4443 12.9127C10.8774 12.3429 11.3252 11.7536 11.7579 11.1678C12.0522 10.7694 12.3707 10.4641 12.7329 10.2353C13.0486 10.0351 13.3538 9.817 13.5839 9.6489C13.6113 9.62908 13.624 9.62543 13.6239 9.62451C13.6263 9.62511 13.6406 9.62926 13.6728 9.654C14.9387 10.6168 16.2079 11.5758 17.4447 12.5049C17.4829 12.5336 17.4947 12.5682 17.4799 12.6089C17.365 12.9249 17.2572 13.2484 17.1527 13.5611C17.1233 13.6481 17.0945 13.7355 17.0651 13.8225C16.9767 14.0849 16.8449 14.3303 16.6621 14.5719C15.3041 16.3663 13.9462 18.1617 12.5886 19.9566L10.0308 23.3379C10.0192 23.3532 10.0071 23.368 9.99421 23.3835C9.60207 23.0875 9.21039 22.7914 8.81864 22.4948C7.64722 21.6089 6.43578 20.6927 5.24037 19.7969C5.23826 19.7953 5.23668 19.7941 5.23458 19.7925L5.23504 19.7925ZM14.3577 8.88949C14.744 8.38645 15.0935 7.92432 15.4262 7.4763C16.3291 8.16257 17.2488 8.85782 18.1385 9.53038L19.0677 10.2328C18.9619 10.3733 18.8555 10.5133 18.7496 10.6533C18.5039 10.9776 18.2503 11.3125 18.0028 11.6445C16.8008 10.7318 15.5752 9.80483 14.3581 8.88896L14.3577 8.88949Z" fill="white"/>
</svg>
