<svg width="34" height="34" viewBox="0 0 34 34" fill="none" xmlns="http://www.w3.org/2000/svg">
<rect x="0.5" y="0.5" width="33" height="33" rx="1.5" stroke="white" stroke-opacity="0.3"/>
<path d="M16.6865 6.92725C16.8212 6.89258 16.9542 6.88882 17.0918 6.92432L24.3828 8.79737C24.5508 8.84054 24.6827 8.90775 24.7695 9.02491C24.8556 9.14109 24.8857 9.28981 24.8857 9.46827C24.8861 11.9844 24.8946 14.5022 24.8838 17.0191C24.87 20.1906 23.5815 22.7368 21.2168 24.728C20.0151 25.74 18.6729 26.502 17.208 27.0337C17.0373 27.0955 16.8548 27.132 16.6533 27.0581C14.3747 26.22 12.3924 24.9282 10.873 22.9566V22.9556C9.70691 21.441 9.06948 19.7086 8.93555 17.7837C8.93121 17.7233 8.91557 17.6729 8.90137 17.5942L8.90039 17.5855V9.24268L8.9082 9.22413C9.02056 8.96324 9.22041 8.84128 9.47363 8.77686C11.8793 8.16666 14.2825 7.54619 16.6865 6.92725ZM17.0518 8.10108C16.9451 8.07383 16.8397 8.07782 16.7266 8.10694C14.6388 8.64505 12.55 9.18045 10.4619 9.71729C10.2511 9.77143 10.1557 9.82096 10.1045 9.88917C10.0526 9.95856 10.0293 10.0688 10.0293 10.2954V13.8784H10.0322V13.978C10.0322 15.0427 10.0187 16.104 10.0352 17.1655C10.0646 19.0626 10.6238 20.7758 11.7686 22.271C13.0582 23.9551 14.7395 25.0816 16.6758 25.8462C16.7922 25.8923 16.8979 25.902 17.0098 25.8784L17.125 25.8433C18.2538 25.4055 19.3026 24.8204 20.2549 24.062C22.5124 22.2635 23.7498 19.9357 23.7578 16.9702C23.7638 14.7278 23.7592 12.4852 23.7588 10.2427C23.7588 10.0593 23.7321 9.95652 23.6816 9.88917C23.6318 9.82274 23.5442 9.77201 23.374 9.72804L17.0518 8.10108Z" fill="white"/>
<path d="M20.9316 14.7217L16.1953 19.458H15.4883L12.8555 16.8271L13.5635 16.1201L15.8408 18.3975L20.2246 14.0146L20.9316 14.7217Z" fill="white"/>
<path d="M20.9316 14.7217L21.0024 14.7924V14.651L20.9316 14.7217ZM16.1953 19.458V19.558L16.266 19.5287L16.1953 19.458ZM15.4883 19.458L15.4176 19.5287L15.4883 19.558V19.458ZM12.8555 16.8271L12.7848 16.7564L12.7848 16.8979L12.8555 16.8271ZM13.5635 16.1201L13.6342 16.0494L13.4928 16.0494L13.5635 16.1201ZM15.8408 18.3975L15.7701 18.4682L15.9115 18.4682L15.8408 18.3975ZM20.2246 14.0146L20.2953 13.9439L20.1539 13.9439L20.2246 14.0146ZM20.9316 14.7217L20.8609 14.651L16.1246 19.3873L16.1953 19.458L16.266 19.5287L21.0024 14.7924L20.9316 14.7217ZM16.1953 19.458V19.358H15.4883V19.458V19.558H16.1953V19.458ZM15.4883 19.458L15.559 19.3873L12.9262 16.7564L12.8555 16.8271L12.7848 16.8979L15.4176 19.5287L15.4883 19.458ZM12.8555 16.8271L12.9261 16.8979L13.6341 16.1909L13.5635 16.1201L13.4928 16.0494L12.7848 16.7564L12.8555 16.8271ZM13.5635 16.1201L13.4928 16.1908L15.7701 18.4682L15.8408 18.3975L15.9115 18.3268L13.6342 16.0494L13.5635 16.1201ZM15.8408 18.3975L15.9115 18.4682L20.2953 14.0854L20.2246 14.0146L20.1539 13.9439L15.7701 18.3267L15.8408 18.3975ZM20.2246 14.0146L20.1539 14.0854L20.8609 14.7924L20.9316 14.7217L21.0024 14.651L20.2953 13.9439L20.2246 14.0146Z" fill="white"/>
</svg>
