<svg width="34" height="34" viewBox="0 0 34 34" fill="none" xmlns="http://www.w3.org/2000/svg">
<rect x="0.5" y="0.5" width="33" height="33" rx="1.5" stroke="white" stroke-opacity="0.3"/>
<path d="M17.9207 7.3252C18.4527 7.40961 18.9931 7.45158 19.5123 7.60532C23.0394 8.65037 25.2016 10.9654 25.9703 14.5684C26.175 15.5285 26.1019 16.5047 26.1122 17.4757C26.1151 17.7346 26.1042 17.9935 26.116 18.252C26.1226 18.4015 26.0689 18.442 25.9274 18.4335C25.6859 18.4189 25.3714 18.5099 25.2219 18.3897C25.0639 18.2623 25.1766 17.9346 25.1714 17.695C25.1507 16.7396 25.2247 15.7813 25.0648 14.8306C24.5154 11.5634 21.966 8.98237 18.7106 8.39854C14.9105 7.71709 11.1751 9.87745 9.90178 13.4917C9.61033 14.3194 9.4533 15.1701 9.44952 16.0482C9.44622 16.7773 9.44386 17.5068 9.45094 18.2359C9.45235 18.3887 9.40991 18.4434 9.25428 18.4335C9.05103 18.4208 8.84683 18.4269 8.6431 18.4316C8.54407 18.434 8.50162 18.4024 8.50445 18.2982C8.53747 16.9683 8.41202 15.6332 8.6912 14.3128C9.43349 10.8003 12.2588 8.06701 15.7952 7.46101C16.0947 7.40961 16.3965 7.37 16.6974 7.3252C17.1053 7.3252 17.5133 7.3252 17.9207 7.3252Z" fill="white"/>
<path d="M10.0716 21.5105C10.0716 22.5371 10.0669 23.5638 10.0758 24.5904C10.0772 24.7781 10.0216 24.8291 9.83813 24.8248C9.29769 24.8135 8.75677 24.8243 8.21633 24.8201C7.27456 24.8125 6.62235 24.1589 6.62046 23.219C6.61811 22.0042 6.61952 20.7894 6.61999 19.5746C6.61999 18.8332 7.00434 18.3574 7.74144 18.2518C8.47287 18.1471 9.21233 18.2258 9.94801 18.2093C10.123 18.2056 10.0692 18.3423 10.0697 18.4305C10.073 19.4572 10.0716 20.4838 10.0716 21.5105Z" fill="white"/>
<path d="M28.0004 21.7248C28.0004 22.3048 28.0004 22.8849 28.0004 23.4645C28.0004 24.2464 27.6604 24.6599 26.8893 24.7769C26.2593 24.8722 25.6222 24.8042 24.9879 24.8208C24.9006 24.8231 24.8553 24.7868 24.8572 24.6972C24.8582 24.65 24.8563 24.6034 24.8563 24.5562C24.8563 22.5265 24.8591 20.4963 24.8516 18.4665C24.8506 18.2619 24.9001 18.194 25.1119 18.2029C25.5264 18.2204 25.9424 18.2057 26.3574 18.2086C27.2883 18.2142 27.9952 18.9179 27.9994 19.8441C28.0023 20.4713 27.9999 21.098 27.9999 21.7252L28.0004 21.7248Z" fill="white"/>
</svg>
