<svg width="54" height="25" viewBox="0 0 54 25" fill="none" xmlns="http://www.w3.org/2000/svg">
<path d="M26.776 0C11.9841 0 0 5.5476 0 12.3912C0 19.2347 11.9841 24.7823 26.776 24.7823C41.5678 24.7823 53.5519 19.2347 53.5519 12.3912C53.5519 5.5476 41.5678 0 26.776 0ZM26.776 23.7819C12.532 23.7819 1.00438 18.6663 1.00438 12.3912C1.00438 6.11601 12.5548 1.00039 26.776 1.00039C40.9971 1.00039 52.5475 6.11601 52.5475 12.3912C52.5475 18.6663 40.9971 23.7819 26.776 23.7819Z" fill="#474747"/>
<path d="M47.6638 14.8922C48.0975 14.8922 48.4171 15.2332 48.4171 15.6652C48.4171 16.0972 48.0747 16.4382 47.6638 16.4382C47.2529 16.4382 46.9105 16.0972 46.9105 15.6652C46.9105 15.2332 47.2529 14.8922 47.6638 14.8922ZM47.6638 14.733C47.116 14.733 46.7051 15.1423 46.7051 15.6652C46.7051 16.1881 47.1388 16.5974 47.6638 16.5974C48.1888 16.5974 48.5997 16.1881 48.5997 15.6652C48.5997 15.1423 48.166 14.733 47.6638 14.733ZM47.3214 15.1195V16.1881H47.5268V15.7334C47.5268 15.7334 47.5268 15.7334 47.5268 15.7562H47.5497L47.8236 16.1881H48.0747L47.7323 15.7107H47.7779C47.9377 15.7107 48.0747 15.597 48.0747 15.3924C48.0747 15.3014 48.0519 15.2332 47.9834 15.165C47.9377 15.1195 47.8692 15.0968 47.7323 15.0968H47.3214V15.1195ZM47.5268 15.3014H47.6866C47.8008 15.3014 47.8464 15.3469 47.8464 15.4378C47.8464 15.5288 47.8008 15.597 47.6866 15.597H47.5268V15.3014Z" fill="#474747"/>
<path d="M12.7148 18.2344H13.8334V18.9619H14.8834V18.2344H16.0019V20.3261H14.8834V19.4849H13.8334V20.3261H12.7148V18.2344Z" fill="#474747"/>
<path d="M17.0078 18.2344H19.9981V18.78H18.1263V19.0301H19.8384V19.5303H18.1263V19.7804H20.0666V20.3261H17.0078V18.2344Z" fill="#474747"/>
<path d="M21.0234 18.2344H22.142V19.8032H23.7398V20.3488H21.0234V18.2571V18.2344Z" fill="#474747"/>
<path d="M24.6758 18.2344H26.2737L26.7987 19.4621L27.3237 18.2344H28.9216V20.3261H27.8716V18.9847L27.2324 20.3261H26.4106L25.7715 18.9847V20.3261H24.7214V18.2344H24.6758Z" fill="#474747"/>
<path d="M29.9258 18.2344H32.9161V18.78H31.0443V19.0301H32.7563V19.5303H31.0443V19.7804H32.9846V20.3261H29.9258V18.2344Z" fill="#474747"/>
<path d="M34.7895 18.7573H33.7852V18.2116H36.9353V18.7573H35.9309V20.3261H34.8124V18.7573H34.7895Z" fill="#474747"/>
<path d="M38.6693 19.6213C38.6693 19.6213 38.6693 19.7122 38.715 19.7577C38.8063 19.8941 39.0345 19.9168 39.24 19.9168C39.4226 19.9168 39.6965 19.8714 39.6965 19.735C39.6965 19.6213 39.5367 19.5985 38.9204 19.4849C38.3497 19.3939 37.6877 19.303 37.6877 18.871C37.6877 18.3935 38.3954 18.1889 39.1487 18.1889C39.9248 18.1889 40.6324 18.3708 40.6552 18.871H39.6052C39.6052 18.871 39.5595 18.7346 39.4682 18.7118C39.3769 18.6664 39.24 18.6664 39.1487 18.6664C38.9889 18.6664 38.7378 18.6891 38.7378 18.8028C38.7378 18.9619 39.2856 18.9847 39.7878 19.0756C40.29 19.1666 40.815 19.303 40.815 19.6895C40.815 20.2352 39.9476 20.417 39.1487 20.417C38.7378 20.417 37.5736 20.3261 37.5508 19.6667H38.6693V19.6213Z" fill="#474747"/>
<path d="M32.2534 13.6871V6.5025H28.875V16.6201H36.659V13.6871H32.2534Z" fill="#474747"/>
<path d="M41.3608 13.6871V6.5025H37.9824V16.6201H45.7664V13.6871H41.3608Z" fill="#474747"/>
<path d="M27.0509 9.32178V6.5025H18.5137V16.6201H27.0509V13.6871H21.8921V12.7777H26.5944V10.0721H21.8921V9.32178H27.0509Z" fill="#474747"/>
<path d="M15.727 11.027C16.2748 10.5496 16.6172 9.86747 16.6172 9.07171C16.6172 7.63934 15.6128 6.4798 14.0149 6.4798H7.7832V16.5974H13.9008C15.6585 16.5974 17.0966 15.2332 17.0966 13.528C17.0966 12.4821 16.5487 11.5727 15.727 11.0043V11.027ZM11.1616 9.20813H12.8051C13.0562 9.20813 13.2845 9.41275 13.2845 9.68559C13.2845 9.95842 13.079 10.163 12.8051 10.163H11.1616V9.23086V9.20813ZM13.0562 13.7781H11.1616V12.5276H13.0562C13.3986 12.5276 13.6954 12.8004 13.6954 13.1642C13.6954 13.528 13.4214 13.8008 13.0562 13.8008V13.7781Z" fill="#474747"/>
</svg>
