<svg width="40" height="22" viewBox="0 0 40 22" fill="none" xmlns="http://www.w3.org/2000/svg">
<path fill-rule="evenodd" clip-rule="evenodd" d="M0 2.4555H39.0568V0H0V2.4555ZM0 21.4174H39.0568V18.9619H0V21.4174ZM24.1737 17.2339V9.54915L22.7812 15.2559C22.3475 17.0521 22.1193 17.4386 21.1377 17.4386C20.1562 17.4386 19.9279 17.0748 19.4942 15.2559L18.1246 9.54915V17.2339H14.5864C14.5864 8.02584 14.5864 6.70714 14.5864 6.70714C14.769 4.50174 16.0245 3.97881 17.28 3.97881C19.1518 3.97881 19.6996 4.54722 20.0877 6.0478L21.1149 10.0721L22.1877 6.0478C22.5758 4.54722 23.1237 3.97881 24.9955 3.97881C26.2509 3.97881 27.4836 4.50174 27.689 6.70714V17.2339H24.1965H24.1737ZM13.3081 10.595C13.3081 6.95724 10.3178 3.95608 6.64263 3.95608C2.9675 3.95608 0 6.95724 0 10.595C0 14.2328 2.99032 17.2339 6.66546 17.2339C10.3406 17.2339 13.3309 14.2555 13.3309 10.595H13.3081ZM3.33273 10.595C3.33273 8.77613 4.8393 7.27554 6.66546 7.27554C8.49161 7.27554 9.99818 8.77613 9.99818 10.595C9.99818 12.4139 8.49161 13.9145 6.66546 13.9145C4.8393 13.9145 3.33273 12.4139 3.33273 10.595ZM29.2869 17.2339H32.8023V13.3233H33.898C37.2763 13.3233 39.034 11.6863 39.034 8.5715C39.034 5.97959 36.9339 3.97881 34.149 3.97881C31.524 3.97881 29.2641 5.5476 29.2641 9.48094V17.2339H29.2869ZM32.8023 9.00349C32.8023 7.753 33.3501 7.57111 34.0349 7.57111C34.9936 7.57111 35.2219 8.23046 35.2219 8.84433C35.2219 9.52642 34.4686 9.75378 33.898 9.75378H32.8023V9.00349Z" fill="#474747"/>
</svg>
