<svg width="50" height="23" viewBox="0 0 50 23" fill="none" xmlns="http://www.w3.org/2000/svg">
<path d="M9.29055 13.3838C9.08511 12.7472 8.42312 12.3379 8.35464 12.4516C8.35464 12.5425 8.42311 13.1109 8.26333 13.2019C8.10354 13.2928 7.76113 13.2246 7.76113 12.7017C7.96657 12.5653 8.19485 12.4971 8.12637 12.1333C8.05789 11.7695 7.71549 10.8373 7.71549 10.7691C7.71549 10.7009 7.80679 10.4963 7.71549 10.3144C7.62418 10.1325 7.53288 9.746 7.51005 9.65505C7.48723 9.56411 7.39591 9.06391 7.3046 8.76834C7.21329 8.47277 6.8024 7.24503 6.77957 6.85851C6.75675 6.472 6.77959 5.83539 6.66545 5.24425C6.66545 4.85774 6.66545 4.5167 6.57414 4.35754C6.48283 4.19839 6.20891 4.15292 5.91216 4.03924C5.63824 3.92556 4.54255 3.49357 4.54255 3.49357C4.54255 3.49357 4.45125 3.4481 4.40559 3.37989C4.35994 3.31169 4.26862 3.22074 4.3371 3.06159C4.4284 2.92517 4.56537 2.81149 4.58819 2.6296C4.58819 2.47045 4.79365 2.33403 4.79365 2.22035C4.79365 2.10667 4.72516 1.97026 4.79365 1.87931C4.88495 1.76563 5.02191 1.33365 4.86212 1.10629C4.70234 0.878925 4.70233 0.333259 4.42841 0.174106C4.15448 0.0149537 3.85774 -0.0759905 3.49251 0.083162C3.01315 0.083162 2.53378 0.310523 2.39681 0.697036C2.23703 1.08355 2.2142 1.85658 2.39681 1.99299C2.57943 2.12941 2.44247 2.56139 2.57943 2.78876C2.71639 2.99338 2.78487 3.1298 2.73922 3.26621C2.69357 3.40263 2.55661 3.53905 2.41965 3.58452C2.28268 3.62999 1.09568 4.17566 0.844584 4.35754C0.593488 4.5167 0.456537 5.17604 0.319575 5.6535C0.182614 6.13096 0 6.65389 0 7.19955C0 7.74522 2.09191e-06 8.01805 0.0913097 8.31362C0.136963 8.56372 0.159778 8.88202 0.114124 9.01844C0.0684703 9.15486 0.251095 9.67779 0.319575 9.83694C0.410883 9.99609 0.47935 10.3599 0.502177 10.4735C0.502177 10.5872 0.867416 11.3148 0.867416 11.3148C0.867416 11.3148 0.79893 11.4967 1.00437 11.9059C1.20981 12.3152 1.48375 12.5198 1.39244 12.8381C1.30113 13.1564 1.25548 13.3838 1.14135 14.5888C1.02721 15.7938 0.821755 16.4759 0.753275 17.8628C0.63914 18.5903 0.593496 19.4543 0.798938 19.909C0.821765 19.9772 0.935889 19.9772 0.913062 20.0454C0.890235 20.1136 0.776113 20.6593 0.890248 20.8639C0.913075 21.0913 0.776101 21.8643 0.753275 22.2281C0.753275 22.5919 1.32396 22.7965 1.55223 22.7738C1.7805 22.751 2.19138 22.5919 2.16855 22.3645C2.12289 22.1144 1.89463 21.3187 1.96311 21.1368C2.0316 20.9549 1.89463 20.5002 1.87181 20.3637C1.84898 20.2501 1.82614 20.0682 1.91745 20.0227C2.00876 19.9772 2.23703 19.9772 2.23703 19.6135C2.23703 19.2497 2.32834 18.7722 2.32834 18.5903C2.32834 18.4084 2.44247 17.7036 2.46529 17.4763C2.46529 17.2489 2.62508 16.3395 2.71639 16.1121C2.76204 15.9757 2.8077 15.7256 2.8077 15.5664C2.8077 15.3845 3.01314 15.1344 3.03596 14.8389C3.03596 14.5433 3.26424 14.2477 3.21858 13.9067C3.17293 13.5884 3.49251 12.6107 3.56099 12.5425C3.62947 12.4743 3.72078 12.7244 3.72078 12.8608C3.72078 12.9973 3.88056 13.4292 3.94904 13.5884C3.9947 13.7475 3.99471 14.0204 4.1545 14.4296C4.26863 14.7025 4.33711 15.3618 4.38276 15.5437C4.42841 15.7256 4.54255 16.3622 4.45124 16.5441C4.35993 16.726 4.61103 17.2034 4.61103 17.3853C4.61103 17.5672 4.74799 18.272 4.72517 18.5676C4.70234 18.8632 4.79364 19.8863 5.09039 20.0682C5.09039 20.1364 5.0904 20.7275 5.04474 20.9321C4.97626 21.1368 4.99909 21.7734 5.22736 21.8416C5.45563 21.8871 5.91216 21.8416 6.23173 21.978C6.55131 22.1144 7.00786 22.2054 7.32743 22.1826C7.64701 22.1372 7.69265 22.1599 7.69265 21.9098C7.69265 21.6597 7.37309 21.6824 7.16765 21.546C6.9622 21.4096 6.50566 21.1595 6.34588 20.5229C6.32305 20.1591 6.32304 20 6.32304 20C6.32304 20 6.48283 19.9545 6.48283 19.6817C6.48283 19.4088 6.30022 18.7722 6.25457 18.3857C6.23174 17.9765 6.18608 16.0439 6.16326 15.6346C6.16326 15.2254 6.07195 13.5429 6.0263 13.0655C5.98065 12.588 5.98064 11.6104 5.91216 11.2238C5.82085 10.8373 5.75237 10.4963 5.75237 10.2462C5.75237 9.99609 5.68389 9.58684 5.68389 9.2458C5.68389 8.90476 5.84368 8.24541 5.84368 8.24541C5.84368 8.24541 5.98064 8.54098 5.98064 8.79108C5.98064 9.04118 6.1176 9.4959 6.23173 9.65505C6.34587 9.8142 6.66546 10.2689 6.68828 10.519C6.71111 10.7691 6.98503 10.951 6.98503 10.951C6.98503 10.951 6.98502 11.383 7.12198 11.5421C7.25894 11.724 7.35025 11.8377 7.35025 11.8377C7.35025 11.8377 6.82524 11.8377 6.66545 11.8604C6.57414 11.8832 6.50566 11.9059 6.50566 12.1333C6.50566 12.3606 6.59697 13.9976 6.50566 14.6343C6.50566 15.089 6.46 15.0662 6.55131 15.1572C6.64262 15.2481 7.12199 15.7711 7.73832 15.7938C8.35464 15.7938 8.7427 15.5892 9.03945 15.2027C9.3362 14.7934 9.56447 14.0658 9.35903 13.4292M1.73483 9.65505L1.59788 10.2689C1.59788 10.2689 1.48375 10.1098 1.46092 9.99609C1.43809 9.88241 1.46091 9.56411 1.41526 9.42769C1.39243 9.29127 1.34678 8.4273 1.34678 8.26815C1.41526 8.06353 1.32395 7.79069 1.34678 7.65428C1.34678 7.51786 1.43808 7.24503 1.48373 7.31323C1.52939 7.38144 1.55222 7.72248 1.57504 7.81343C1.59787 7.90437 1.89463 8.70014 1.87181 8.95023C1.84898 9.17759 1.78049 9.56411 1.75766 9.65505" fill="#474747"/>
<path d="M19.4484 14.2706C19.243 14.2706 18.9462 13.9295 18.6951 13.9523C18.4212 13.9977 15.3624 14.6798 15.2711 14.9072C15.1798 15.1345 15.8189 15.6347 17.1657 15.953C18.5125 16.2713 19.9734 16.6578 20.43 16.8852C20.8865 17.1126 20.9778 17.249 20.7495 17.4309C20.5213 17.6128 20.0419 18.1812 18.9006 18.4767C17.7592 18.7723 11.3905 19.3407 11.0481 18.9997C10.7057 18.6586 10.8883 17.7264 11.1622 17.681C11.4362 17.6355 13.8102 17.7719 14.9743 17.681C16.1385 17.59 16.9146 17.4763 16.2983 17.3172C15.6591 17.158 13.6275 16.5669 13.7188 15.5665C13.8102 14.5889 13.7417 14.0432 14.6776 13.6567C15.6135 13.2702 18.2842 12.5199 19.0147 12.5426C19.7451 12.5654 20.7039 13.0883 20.5441 13.4293C20.3843 13.7704 19.6767 14.2706 19.4941 14.2706" fill="#474747"/>
<path d="M21.9593 15.2936C22.0506 15.1117 21.868 14.6343 22.1647 14.4524C22.4615 14.2705 22.781 14.3614 23.2148 14.4979C23.6256 14.6343 24.4931 14.8389 24.6985 14.8389C24.9039 14.8389 25.5203 15.089 25.3605 15.7256C25.2007 16.3622 24.7213 17.158 24.9039 17.2717C25.1094 17.3853 25.6116 17.2262 26.7073 16.7033C27.803 16.1576 28.716 15.7256 28.9671 15.7483C29.1954 15.7711 29.9487 16.1121 29.9943 16.3167C30.0628 16.5214 29.5606 17.6809 29.6519 17.931C29.7432 18.2038 29.8574 18.3857 29.8574 18.3857C29.8574 18.3857 28.7845 19.136 28.4878 19.0223C28.191 18.9087 28.0541 18.363 28.0541 17.9537C28.0541 17.5445 28.3051 17.2489 28.0084 17.2717C27.7345 17.2944 24.6985 18.704 24.0594 18.7268C23.4202 18.7268 23.2376 18.5221 23.2604 17.6809C23.2832 16.8397 23.9224 16.0894 23.58 16.0666C23.2376 16.0439 22.9865 16.0212 22.8723 16.4532C22.7582 16.8851 21.7995 20.3638 21.594 20.6593C21.3658 20.9549 20.2929 21.637 20.1103 21.546C19.9277 21.4551 19.9048 20.9094 20.019 20.7503C20.1331 20.5911 20.8408 18.7722 20.8636 18.4085C20.8864 18.0447 21.0005 17.3626 21.3201 16.5441C21.6397 15.7256 21.8451 15.4755 21.9365 15.2936" fill="#474747"/>
<path d="M29.6043 13.793C29.3989 13.8385 28.988 15.1572 29.1706 15.1799C29.3761 15.1799 30.7457 14.8162 30.9055 14.8389C31.0653 14.8616 31.2707 14.4524 30.974 14.2705C30.6772 14.0886 29.7185 13.793 29.6043 13.8158" fill="#474747"/>
<path d="M37.0255 14.4979C36.9113 14.5434 36.5233 15.8166 36.7744 15.8393C37.0255 15.8621 37.6875 15.4301 37.9386 15.4301C38.1896 15.4301 38.6462 14.9981 38.3723 14.7935C38.0983 14.5888 37.1853 14.4297 37.0255 14.4979Z" fill="#474747"/>
<path d="M33.4192 16.1576C33.4192 16.0212 32.5289 15.7711 32.3007 15.7711C32.0724 15.7711 31.9811 15.9075 31.8898 16.0667C31.7985 16.2258 31.0224 17.5218 31.0224 18.022C31.0224 18.4994 30.9082 19.4771 31.3191 19.4998C31.73 19.4998 33.716 18.5904 34.4008 18.2948C35.0856 17.9993 35.291 17.8174 35.3138 17.8628C35.3138 17.931 35.0171 19.227 35.4736 19.3407C35.9302 19.4544 38.2585 18.2039 38.3955 18.0902C38.5324 17.9765 38.5096 17.5673 38.4639 17.5218C38.4183 17.4536 38.1444 17.3399 38.0759 17.3399C38.0074 17.3399 37.0487 17.6809 37.0487 17.6809C37.0487 17.6809 37.5509 16.9079 37.4824 16.7942C37.4139 16.6806 36.478 16.3168 36.2497 16.3623C36.0215 16.4077 35.5421 16.5896 35.154 16.5669C34.7432 16.5441 33.9899 16.9307 33.6931 16.9761C33.3964 17.0443 32.9398 17.2717 33.0311 16.9989C33.1224 16.726 33.4192 16.3623 33.442 16.1804" fill="#474747"/>
<path d="M41.9788 15.6801C41.9788 15.6801 41.3624 15.9757 41.2711 15.9984C41.1798 16.0212 40.6548 16.0666 40.3124 16.2713C39.97 16.4759 39.1711 17.2262 39.1939 17.499C39.1939 17.7718 39.1711 18.272 39.4222 18.272C39.6961 18.272 40.7005 18.1584 40.8374 17.9537C40.9744 17.7491 40.9972 17.59 40.9972 17.59C40.9972 17.59 41.7505 17.2034 41.819 17.2944C41.8875 17.3853 41.5679 19.7272 41.682 19.7272C41.7962 19.7272 43.0745 19.1815 43.1201 18.7722C43.1658 18.363 43.3256 17.1125 43.394 17.067C43.4625 17.0216 47.2746 16.8169 47.8225 16.5441C48.3475 16.2713 49.1464 15.7938 49.1464 15.7483C49.1464 15.7029 49.1693 15.4528 49.0551 15.43C48.941 15.4073 45.38 15.5665 44.718 15.5437C44.056 15.5437 43.531 15.5892 43.5538 15.4755C43.5538 15.3618 43.9419 13.5657 43.9875 13.3838C44.056 13.2019 43.9419 13.0655 43.531 12.8381C43.1201 12.6108 42.8919 12.5198 42.6408 12.8836C42.3897 13.2474 42.2527 13.7021 42.1614 14.4296C42.0701 15.1572 41.9788 15.6801 41.9788 15.6801Z" fill="#474747"/>
<path d="M41.5445 5.31252C41.1337 5.13063 40.7684 5.01695 40.3804 5.49441C39.9923 5.97186 40.5173 6.13102 40.6771 6.17649C40.8369 6.22196 40.6999 6.3129 40.563 6.42659C40.4032 6.54027 38.5314 7.15414 38.3944 7.17688C38.2575 7.17688 38.577 6.8131 38.5542 6.67668C38.5542 6.54027 37.5042 6.26743 37.3672 6.29017C37.2303 6.29017 37.0476 6.42659 36.3172 6.76763C35.5867 7.10867 34.7878 7.35876 34.6508 7.31329C34.5139 7.29056 34.9247 6.42659 34.9247 6.19922C34.9247 5.97186 34.3312 5.83545 33.9888 5.83545C33.6464 5.83545 33.4866 6.01734 32.8247 6.563C32.1627 7.1314 30.8844 7.85896 30.8844 7.85896C30.8844 7.85896 31.5007 6.90404 31.4551 6.72215C31.4094 6.54027 30.3365 6.29017 30.2224 6.29017C30.1083 6.29017 28.6245 7.1314 28.6245 7.1314H28.3734C28.3734 7.1314 26.6157 7.65433 26.5244 7.58612C26.4103 7.51792 27.1179 6.38111 27.2092 6.29017C27.3006 6.19922 28.4647 5.78997 28.556 5.7445C28.6473 5.69903 28.1451 5.1761 27.2777 5.13063C26.4103 5.08516 26.0679 5.67629 26.0679 5.67629L23.6711 7.06319C23.6711 7.06319 23.7624 6.563 23.8537 5.88092C23.9678 5.19884 24.0591 4.81232 23.8993 4.24392C23.7395 3.69826 23.2602 3.63005 22.8265 3.5391C22.3928 3.44816 21.5025 3.67552 21.046 4.06203C20.5894 4.44855 20.9547 5.19884 20.9547 5.19884C20.9547 5.19884 21.9362 4.74412 22.233 4.72138C22.5297 4.69864 22.1873 6.04007 22.1873 6.04007C22.1873 6.04007 21.1829 6.13102 19.722 6.49479C18.2611 6.85857 17.3024 7.22235 16.96 7.3815C16.6404 7.54065 16.298 7.54065 16.2067 7.51792C16.1382 7.51792 13.7642 7.06319 13.7642 7.06319C13.7642 7.06319 17.4393 5.33525 17.9187 5.03968C18.3981 4.74412 18.809 4.51675 18.9916 4.26666C19.1742 4.01656 19.4937 3.63005 19.7448 2.90249C19.9959 2.17494 18.8089 2.03852 16.9143 2.06126C15.0197 2.08399 12.4631 2.74334 11.8467 2.99344C11.2304 3.24353 11.0478 3.56184 10.9793 3.94835C10.9108 4.24392 10.9337 4.926 11.0935 5.15336C11.2532 5.38073 11.55 5.35799 11.5956 5.22157C11.6413 5.08516 12.9881 4.40307 13.0794 4.33487C13.1707 4.28939 13.4674 4.19845 13.4674 4.33487C13.4674 4.47128 12.5087 5.88092 12.5087 5.88092C12.5087 5.88092 11.7783 6.3129 11.5956 6.563C11.413 6.8131 11.5956 7.24508 11.5272 7.60886C11.4815 7.99537 11.5272 8.65472 11.5272 8.65472C11.5272 8.65472 11.0478 9.38228 10.9565 9.65511C10.8424 9.92794 10.9337 10.4736 11.0022 10.701C11.0706 10.9056 12.1435 10.3599 12.2805 10.269C12.4174 10.1553 12.9653 8.72293 12.9653 8.72293L15.636 8.95029C15.636 8.95029 15.773 9.51869 16.0925 9.72332C16.4121 9.92794 19.1057 9.3368 20.2242 8.83661C21.3427 8.33642 21.434 7.76801 21.5254 7.65433C21.6167 7.54065 22.0275 7.58612 22.096 7.58612C22.1417 7.58612 22.2786 8.95029 22.5069 9.10944C22.758 9.24586 24.9037 7.72254 25.0407 7.72254C25.1776 7.72254 24.9266 8.97303 25.4744 9.0185C25.7027 9.0185 29.0126 8.06358 29.1952 7.92717C29.355 7.79075 29.4463 7.97264 29.4463 7.97264C29.4463 7.97264 29.0582 8.90482 29.2865 9.0185C29.5148 9.13218 30.3365 8.5183 30.3365 8.5183C30.3365 8.5183 30.5191 9.20039 30.5876 9.40501C30.6561 9.60964 30.7474 9.67784 30.8844 9.5869C31.0213 9.51869 33.0986 7.79075 33.0986 7.79075C33.0986 7.79075 33.0529 8.7684 33.7606 8.90482C34.4682 9.04123 36.3857 7.88169 36.3857 7.88169L36.6824 7.92717C36.6824 7.92717 36.5911 8.42736 37.0248 8.63198C37.4813 8.83661 39.0108 8.15453 39.5129 7.9499C39.4216 8.24547 39.3075 8.67746 39.1934 9.45048C39.0564 10.4281 38.4401 11.2012 36.9792 11.2466C35.4498 11.2921 35.2215 10.9511 34.9704 10.8829C34.7193 10.7919 34.628 10.8374 34.3312 11.0875C34.1486 11.2466 34.5367 11.5649 35.0389 11.7696C35.5411 11.9742 36.2715 12.0879 37.527 11.9515C39.1249 11.7696 40.1064 11.4058 40.5401 10.4509C40.7684 9.92794 40.5173 9.17765 41.3619 7.79075C41.9554 6.90404 42.7087 6.44932 42.7772 6.15375C42.8685 5.78997 42.0467 5.4262 41.6358 5.24431M15.2023 3.90288C15.2023 3.90288 16.9371 3.56184 16.9371 3.74373C16.9371 3.92562 15.0197 4.83506 14.9284 4.76685C14.8371 4.69864 15.0653 4.01656 15.2023 3.90288Z" fill="#474747"/>
<path d="M29.4919 5.13058C29.7658 5.13058 30.7017 4.33482 30.793 4.17567C30.8843 4.01651 30.9072 3.63 30.793 3.51632C30.6789 3.40264 29.9941 3.15254 29.8799 3.17528C29.7658 3.17528 29.3778 3.51632 29.3549 3.69821C29.3549 3.8801 29.1951 5.15332 29.4691 5.15332" fill="#474747"/>
</svg>
