<svg width="136" height="87" viewBox="0 0 136 87" fill="none" xmlns="http://www.w3.org/2000/svg">
<path d="M67.8221 67.8331C101.89 67.8331 129.507 56.0489 129.507 41.5125C129.507 26.976 101.89 15.1919 67.8221 15.1919C33.7542 15.1919 6.13672 26.976 6.13672 41.5125C6.13672 56.0489 33.7542 67.8331 67.8221 67.8331Z" fill="white"/>
<path d="M41.4774 70.6919C16.8178 65.6903 0.886719 54.2781 0.886719 41.5627C0.886719 31.2777 11.4602 21.5915 29.2008 15.6741L30.3717 15.2866V20.57L29.7685 20.7814C14.7244 25.8886 6.10248 33.4615 6.10248 41.5627C6.10248 51.1785 18.45 60.0899 38.2841 64.7745L38.6034 64.8449L38.7808 65.0915C39.8452 66.4652 41.0161 67.8388 42.2935 69.2125L44.174 71.2202L41.4419 70.6567L41.4774 70.6919Z" fill="#130C0E"/>
<path d="M29.485 16.5193V19.9359C14.7248 24.9375 5.21576 32.7922 5.21576 41.5626C5.21576 51.9533 18.5213 61.0055 38.0715 65.6549C39.1359 67.0286 40.3068 68.4375 41.6551 69.8464C18.2019 65.0914 1.77407 54.2076 1.77407 41.5626C1.77407 31.2424 12.7378 22.1197 29.485 16.5193ZM31.2591 14.0537L28.9173 14.8286C10.538 20.9926 0 30.714 0 41.5626C0 54.7007 16.215 66.465 41.3003 71.5371L46.7289 72.629L42.9324 68.6136C41.6551 67.2752 40.5197 65.9015 39.4907 64.563L39.1004 64.0699L38.4973 63.929C19.3728 59.3853 6.98983 50.6148 6.98983 41.5626C6.98983 33.9897 15.6118 26.5225 30.0527 21.6266L31.2591 21.2039V14.0537Z" fill="white"/>
<path d="M93.7051 69.2125C94.9824 67.8388 96.1533 66.4652 97.2177 65.0915L97.3951 64.8449L97.7144 64.7745C117.584 60.0546 129.896 51.1433 129.896 41.5627C129.896 33.4615 121.274 25.8886 106.23 20.7814L105.627 20.57V15.2866L106.798 15.6741C124.538 21.5915 135.112 31.2777 135.112 41.5627C135.112 54.2429 119.181 65.6903 94.5211 70.6919L91.7891 71.2554L93.6696 69.2477L93.7051 69.2125Z" fill="#130C0E"/>
<path d="M106.513 16.5193C123.261 22.1197 134.224 31.2424 134.224 41.5626C134.224 54.2076 117.797 65.0914 94.3434 69.8464C95.6562 68.4375 96.8625 67.0286 97.927 65.6549C117.477 61.0055 130.783 51.9533 130.783 41.5626C130.783 32.7922 121.274 24.9727 106.513 19.9359V16.5193ZM104.739 14.0537V21.2039L105.946 21.6266C120.387 26.5578 129.009 33.9897 129.009 41.5626C129.009 50.6148 116.626 59.3853 97.5012 63.929L96.898 64.0699L96.5077 64.563C95.4788 65.9015 94.3079 67.2752 93.066 68.6136L89.2695 72.629L94.6982 71.5371C119.783 66.465 135.998 54.6654 135.998 41.5274C135.998 30.6788 125.461 20.9574 107.081 14.8286L104.739 14.0537Z" fill="white"/>
<path d="M57.1607 19.8304C56.3801 19.8304 55.635 19.443 55.2447 18.7737L48.6452 6.69235C48.2904 6.12879 48.2194 5.31867 48.5033 4.64944C48.7871 3.98021 49.3903 3.48709 50.1354 3.31098C57.7639 1.69074 63.7957 0.880615 68.018 0.880615C72.2403 0.880615 78.3076 1.69074 85.9361 3.31098C86.6812 3.45187 87.2844 3.98021 87.5682 4.64944C87.8521 5.31867 87.7811 6.12879 87.3908 6.72758L80.8623 18.7033C80.4365 19.4077 79.6914 19.7952 78.9108 19.7952H57.2317L57.1607 19.8304Z" fill="#130C0E"/>
<path d="M68.0173 1.76113C72.8427 1.76113 79.4778 2.85304 85.7225 4.15627C86.6805 4.36761 87.1062 5.42429 86.6095 6.23441L80.0455 18.2806C79.7971 18.668 79.3358 18.9146 78.8746 18.9146H57.1955C56.6987 18.9146 56.273 18.668 56.0246 18.2806L49.4605 6.23441C48.9283 5.42429 49.3896 4.33239 50.3476 4.15627C56.5923 2.85304 63.2273 1.76113 68.0528 1.76113M68.0528 0C63.7595 0 57.6567 0.810121 49.9573 2.46559C48.9638 2.67692 48.1122 3.38138 47.6865 4.33239C47.2962 5.2834 47.3671 6.3753 47.9348 7.22065L54.4634 19.1611C55.1021 20.1826 56.0956 20.7462 57.1955 20.7462H78.8746C79.9745 20.7462 80.968 20.1826 81.5712 19.2668L88.2062 7.1502C88.7029 6.3753 88.7739 5.2834 88.3836 4.33239C87.9933 3.38138 87.1417 2.71215 86.1128 2.46559C78.4133 0.845344 72.346 0 68.0173 0L68.0528 0Z" fill="white"/>
<path d="M68.0199 86.1192C67.6651 86.1192 67.3457 86.0488 67.0264 85.8726C65.004 84.8864 57.8722 81.2233 50.5631 75.5172C49.6406 74.8127 49.4277 73.5095 50.0663 72.5233L55.2466 64.3516C55.6724 63.6824 56.382 63.2949 57.1626 63.2949H78.8417C79.6223 63.2949 80.3674 63.7176 80.7577 64.3516L85.938 72.5233C86.5411 73.5095 86.3283 74.7775 85.4412 75.5172C78.1321 81.2585 71.0003 84.9216 68.9779 85.8726C68.6586 86.0135 68.3392 86.1192 67.9844 86.1192H68.0199Z" fill="#130C0E"/>
<path d="M78.8399 64.1757C79.3367 64.1757 79.7624 64.4222 80.0108 64.8097L85.1911 72.9814C85.5814 73.5801 85.4395 74.355 84.8717 74.8129C77.669 80.4838 70.6437 84.0765 68.5858 85.0979C68.4084 85.2036 68.1955 85.2388 67.9826 85.2388C67.7697 85.2388 67.5569 85.2036 67.3794 85.0979C65.3215 84.0765 58.2962 80.519 51.0935 74.8129C50.5258 74.3903 50.4194 73.5801 50.7742 72.9814L55.9545 64.8097C56.2028 64.4222 56.6641 64.1757 57.1253 64.1757H78.8044M78.8044 62.4146H57.1253C56.0254 62.4146 55.0319 62.9781 54.4288 63.8939L49.2485 72.0656C48.3969 73.4392 48.6808 75.2004 49.9581 76.2218C57.3382 82.0336 64.5409 85.6967 66.5634 86.683C66.9892 86.8943 67.4859 87 67.9471 87C68.4084 87 68.9051 86.8943 69.3309 86.683C71.3534 85.6967 78.5561 81.9984 85.9362 76.2218C87.2135 75.2356 87.4974 73.4392 86.6458 72.0656L81.4655 63.8939C80.8978 62.9781 79.8689 62.4146 78.769 62.4146H78.8044Z" fill="white"/>
<path d="M47.8989 72.5589C47.3312 72.5589 46.7635 72.3476 46.3378 71.9602C41.5478 67.5926 37.8577 63.0488 35.3385 58.3994L34.6289 57.0962H51.8728L54.5694 61.7456C54.9952 62.4853 54.9952 63.3658 54.5339 64.1055L49.8149 71.5375C49.3891 72.2067 48.6795 72.5942 47.8989 72.5942V72.5589Z" fill="#130C0E"/>
<path d="M51.3777 57.9765L53.8259 62.168C54.0743 62.6259 54.0743 63.1543 53.8259 63.6122L49.1069 71.0441C48.8231 71.4668 48.3973 71.6782 47.936 71.6782C47.5812 71.6782 47.2619 71.5725 46.978 71.2907C42.8267 67.4867 38.8883 63.0134 36.1562 57.9413H51.3777M52.4067 56.1802H33.1758L34.5596 58.7867C37.1142 63.5417 40.8752 68.1559 45.7362 72.5939C46.3394 73.1223 47.0845 73.4393 47.9005 73.4393C49.0005 73.4393 49.9939 72.8757 50.5971 71.9599L55.3161 64.5279C55.9548 63.5417 55.9548 62.3089 55.3871 61.2875L52.9389 57.096L52.4422 56.2154L52.4067 56.1802Z" fill="white"/>
<path d="M88.0975 72.5585C87.3169 72.5585 86.5718 72.171 86.1815 71.5018L81.6044 64.2811C81.1432 63.5767 81.1432 62.6609 81.5689 61.9564L84.4074 57.0957H101.368L100.658 58.3989C98.1387 63.0483 94.4487 67.6273 89.6587 71.9597C89.2329 72.3471 88.6652 72.5585 88.0975 72.5585Z" fill="#130C0E"/>
<path d="M99.8791 57.9765C97.147 63.0485 93.2441 67.5218 89.0573 71.3259C88.7734 71.5724 88.4541 71.7133 88.0993 71.7133C87.638 71.7133 87.1768 71.502 86.9284 71.0793L82.3513 63.8586C82.0674 63.436 82.0674 62.8724 82.3513 62.4145L84.906 57.9765H99.8791ZM102.824 56.2153H83.877L83.3803 57.0959L80.8256 61.534C80.2224 62.5554 80.2579 63.7882 80.8966 64.7744L85.4737 71.9951C86.0414 72.9109 87.0703 73.4744 88.1702 73.4744C88.9508 73.4744 89.7314 73.1927 90.3346 72.6291C95.1955 68.191 98.9566 63.5769 101.511 58.8218L102.895 56.2153H102.824Z" fill="white"/>
<path d="M31.3294 26.2409L31.1875 11.4474C31.1875 9.47494 32.5003 7.71381 34.4163 7.18547C36.7226 6.55146 40.3772 5.56522 44.564 4.57899H44.6704L45.0962 4.50854C45.8768 4.50854 46.6219 4.89599 47.0122 5.56523L54.5342 19.0907C54.96 19.76 54.9955 20.6405 54.5342 21.3802L51.6957 26.2409H31.2939H31.3294Z" fill="#130C0E"/>
<path d="M45.0974 5.35391C45.5587 5.35391 46.0199 5.60047 46.2683 5.98792L53.7549 19.4782C54.0387 19.9009 54.0387 20.4644 53.7549 20.9223L51.2002 25.3604H32.1822C32.1467 20.2883 32.0758 14.1244 32.0403 11.4122C32.0403 9.82719 33.0692 8.41828 34.6304 7.99561C36.9367 7.3616 40.5558 6.37536 44.7426 5.38913C44.849 5.38913 44.9555 5.35391 45.0619 5.35391M45.0619 3.59277C44.8136 3.59277 44.5652 3.59277 44.3168 3.66322C40.13 4.64945 36.4754 5.63569 34.1337 6.2697C31.8274 6.9037 30.2307 9.01706 30.2662 11.4122C30.2662 13.3847 30.3372 17.2592 30.3727 21.2041V25.3604L30.4081 27.1215H52.2292L52.7259 26.2409L55.2806 21.8029C55.8837 20.7814 55.8483 19.5486 55.2096 18.5624L47.7585 5.17779C47.1198 4.15634 46.1264 3.628 45.0264 3.628L45.0619 3.59277Z" fill="white"/>
<path d="M52.582 26.241L55.2431 21.662C55.6689 20.9576 56.414 20.5349 57.2301 20.5349H79.0511C79.8672 20.5349 80.6123 20.9576 81.0381 21.662L83.6992 26.241H52.582Z" fill="#130C0E"/>
<path d="M79.0531 21.4154C79.5498 21.4154 80.0111 21.662 80.2594 22.1199L82.1399 25.3604H54.1451L56.0257 22.1199C56.274 21.6972 56.7353 21.4154 57.232 21.4154H79.0531ZM79.0531 19.6543H57.232C56.0966 19.6543 55.0677 20.2531 54.5 21.2393L52.6194 24.4798L51.0938 27.1215H85.2623L83.7366 24.4798L81.8561 21.2393C81.2884 20.2531 80.2239 19.6543 79.124 19.6543H79.0531Z" fill="white"/>
<path d="M57.2327 62.5909C56.4166 62.5909 55.6715 62.1682 55.2457 61.4637L52.7266 57.1313H83.5599L81.0407 61.4637C80.6149 62.1682 79.8698 62.5909 79.0537 62.5909H57.2327Z" fill="#130C0E"/>
<path d="M81.9974 57.9765L80.2233 61.0056C79.9749 61.4283 79.5137 61.7101 79.0169 61.7101H57.1959C56.6992 61.7101 56.2379 61.4635 55.9895 61.0056L54.2155 57.9765H81.9619M85.0487 56.2153H51.1641L52.6898 58.857L54.4638 61.8862C55.0315 62.8724 56.096 63.4712 57.1959 63.4712H79.0169C80.1523 63.4712 81.1813 62.8724 81.749 61.8862L83.5231 58.857L85.0487 56.2153Z" fill="white"/>
<path d="M84.5178 26.2409L81.5728 21.1689C81.1471 20.4292 81.1471 19.5486 81.6083 18.8089L88.953 5.60045C89.4142 4.89599 90.1238 4.50854 90.9044 4.50854H91.0109L91.4367 4.57899C95.6235 5.56522 99.278 6.55146 101.584 7.18547C103.5 7.71381 104.849 9.47494 104.813 11.4474L104.671 26.2409H84.5178Z" fill="#130C0E"/>
<path d="M90.9036 5.35391C90.9036 5.35391 91.1165 5.35391 91.2229 5.38913C95.3742 6.37536 99.0288 7.3616 101.335 7.99561C102.896 8.41828 103.925 9.82719 103.925 11.4122C103.925 14.0891 103.854 20.2531 103.783 25.3604H85.0137L82.3171 20.711C82.0687 20.2531 82.0687 19.7248 82.3171 19.2669L89.6617 5.98792C89.9101 5.56524 90.3714 5.35391 90.8326 5.35391M90.8326 3.59277C89.7327 3.59277 88.7392 4.15634 88.136 5.07213L80.7204 18.4215C80.1527 19.3373 80.1172 20.5701 80.7204 21.5916L83.417 26.2409L83.9138 27.1215H105.451V25.3604L105.486 21.8381C105.522 17.6818 105.557 13.5256 105.593 11.4122C105.593 9.01706 104.032 6.9037 101.725 6.2697C99.3836 5.63569 95.729 4.64945 91.5422 3.66322C91.2939 3.59277 91.0455 3.59277 90.7971 3.59277H90.8326Z" fill="white"/>
<path d="M40.9471 54.9824V45.3666H35.3765V54.9824H24.5547V28.5654H35.3765V37.6177H40.9471V28.5654H51.8044V54.9824H40.9471Z" fill="#EF4123"/>
<path d="M50.9173 29.4459V54.0666H41.8696V44.486H34.5249V54.0666H25.4772V29.4459H34.5249V38.4982H41.8696V29.4459H50.9173ZM52.6914 27.6848H40.0955V36.737H36.299V27.6848H23.7031V55.8277H36.299V46.2472H40.0955V55.8277H52.6914V27.6848Z" fill="white"/>
<path d="M55.2109 54.9824V28.6006H68.9422C72.4194 28.6006 75.0095 28.9176 76.8546 29.5516C78.7351 30.1856 80.2608 31.2071 81.3962 32.5807C82.5316 33.9897 83.1348 35.5747 83.1348 37.3006C83.1348 39.9423 81.9639 42.0909 79.6221 43.7111C77.3868 45.2609 74.4063 46.0358 70.7873 46.0358H66.2456V54.9824H55.2819H55.2109ZM68.3745 38.9913C71.7452 38.9913 71.7452 37.7937 71.7452 37.4063C71.7452 37.0188 71.7452 35.9621 68.6939 35.9621H66.0327V38.9561H68.3745V38.9913Z" fill="#EF4123"/>
<path d="M68.9422 29.446C72.2775 29.446 74.8321 29.763 76.5707 30.3618C78.3093 30.9606 79.6931 31.8764 80.6865 33.1092C81.7155 34.342 82.2122 35.7509 82.2122 37.2654C82.2122 39.6254 81.1833 41.4922 79.0899 42.9363C76.9965 44.3804 74.2289 45.1201 70.7518 45.1201H65.3231V54.0667H56.1334V29.446H68.9777M65.2167 39.8367H68.4455C71.284 39.8367 72.7032 39.0266 72.7032 37.3711C72.7032 35.8213 71.3904 35.0464 68.7648 35.0464H65.2167V39.8015M68.9777 27.6497H54.3594V55.7926H67.0972V46.846H70.7518C74.5837 46.846 77.7416 46.0007 80.1188 44.3452C82.6735 42.5841 83.9863 40.1185 83.9863 37.2302C83.9863 35.293 83.3476 33.4966 82.0703 31.9468C80.8285 30.4675 79.1963 29.3403 77.1384 28.6359C75.1869 27.9667 72.5258 27.6497 68.9422 27.6497H68.9777ZM66.9907 36.8076H68.7648C70.5389 36.8076 70.8937 37.195 70.8937 37.195C70.8937 38.0051 68.8358 38.0403 68.4455 38.0403H66.9907V36.8076Z" fill="white"/>
<path d="M96.8293 55.1233C89.0588 55.1233 84.1269 52.5521 82.1755 47.4448L81.7852 46.4233L92.0038 44.9792L92.2522 45.6132C92.9263 47.1982 94.6649 48.0084 97.397 48.0084C99.242 48.0084 100.377 47.6914 100.377 47.163C100.377 47.0221 100.377 46.7756 99.8806 46.4938C99.3839 46.2472 98.4259 46.0007 97.0776 45.7893C91.4006 44.944 87.8525 43.8169 86.1848 42.408C84.4817 40.9638 83.6302 39.2027 83.6302 37.195C83.6302 34.659 84.872 32.5104 87.2848 30.8549C89.6265 29.2347 92.9973 28.4246 97.326 28.4246C103.784 28.4246 108.183 30.5027 110.419 34.5533L110.986 35.5748L101.726 37.7938L101.406 37.195C100.661 35.8565 99.242 35.2225 97.0067 35.2225C96.0841 35.2225 94.4875 35.3282 94.4875 36.1031C94.4875 36.2088 94.4875 36.3849 94.8423 36.5962C95.1261 36.7371 95.8003 36.9837 97.397 37.2655C101.158 37.8995 103.855 38.463 105.487 38.9209C107.154 39.4493 108.609 40.3298 109.709 41.5626C110.88 42.8306 111.448 44.3804 111.448 46.1063C111.448 48.8185 110.028 51.0727 107.261 52.7282C104.6 54.3132 101.087 55.1233 96.7938 55.1233H96.8293Z" fill="#EF4123"/>
<path d="M97.3263 29.3052C103.429 29.3052 107.58 31.2072 109.638 34.976L102.152 36.7724C101.265 35.1522 99.5261 34.342 97.007 34.342C94.7716 34.342 93.6008 34.9408 93.6008 36.1032C93.6008 36.6315 93.8846 37.0542 94.4168 37.3712C94.9136 37.653 95.8361 37.8995 97.2553 38.1109C100.981 38.7449 103.642 39.2732 105.203 39.7663C106.729 40.2242 108.006 41.0343 109.035 42.1615C110.064 43.2886 110.561 44.6271 110.561 46.1416C110.561 48.5368 109.284 50.5092 106.8 52.0238C104.281 53.5384 100.91 54.3133 96.7941 54.3133C89.4494 54.3133 84.8014 51.9181 82.9563 47.1983L91.4009 46.0007C92.217 47.9732 94.2394 48.9594 97.3618 48.9594C99.9164 48.9594 101.229 48.3607 101.229 47.2335C101.229 46.6347 100.91 46.1416 100.271 45.7894C99.6681 45.4724 98.6746 45.2258 97.1844 44.9793C91.7557 44.1692 88.2431 43.0773 86.7174 41.774C85.2272 40.506 84.4466 38.9562 84.4466 37.2303C84.4466 34.976 85.5465 33.1092 87.7108 31.6299C89.9107 30.1153 93.104 29.3756 97.2553 29.3756M97.2553 27.6145C92.7492 27.6145 89.2011 28.4951 86.7174 30.1858C84.0918 31.9821 82.6725 34.4477 82.6725 37.2655C82.6725 39.4845 83.666 41.5275 85.5465 43.1477C86.2206 43.7113 87.1077 44.2396 88.2785 44.6975L82.6725 45.4724L80.4727 45.7894L81.2532 47.8675C83.3466 53.327 88.5624 56.1096 96.7231 56.1096C101.158 56.1096 104.848 55.2643 107.651 53.5736C111.448 51.2841 112.264 48.2902 112.264 46.2121C112.264 44.2396 111.59 42.5137 110.277 41.0696C109.035 39.6959 107.474 38.7449 105.629 38.1813C105.416 38.1109 105.203 38.0756 104.99 38.0052L109.958 36.8428L112.193 36.3145L111.093 34.3068C108.716 29.9392 104.032 27.7202 97.2199 27.7202L97.2553 27.6145ZM96.2264 36.1736C96.4038 36.1736 96.6521 36.1736 96.9005 36.1736C98.3198 36.1736 99.2068 36.4906 99.7035 36.8428C98.9939 36.7019 98.2488 36.5963 97.4682 36.4554C96.936 36.3849 96.5457 36.2793 96.2264 36.2088V36.1736ZM97.3618 47.1983C95.1974 47.1983 94.133 46.67 93.6008 46.1416C94.6297 46.353 95.7296 46.5291 96.936 46.7404C97.823 46.8813 98.4262 47.0222 98.8165 47.1279C98.4617 47.1631 98.0004 47.2335 97.3973 47.2335L97.3618 47.1983Z" fill="white"/>
</svg>
