<svg width="1420" height="440" viewBox="0 0 1420 440" fill="none" xmlns="http://www.w3.org/2000/svg">
<path d="M267.881 437.152V278.859H176.848V437.152H0V2.28027H176.848V151.297H267.881V2.28027H445.309V437.152H267.881Z" fill="#1A1A1A"/>
<path d="M500.961 437.198V2.90576H725.355C782.178 2.90576 824.506 8.12425 854.657 18.5612C885.388 28.9981 910.321 45.8132 928.875 68.4265C947.43 91.6197 957.287 117.712 957.287 146.124C957.287 189.611 938.152 224.98 899.884 251.653C863.354 277.165 814.649 289.921 755.506 289.921H681.288V437.198H502.121H500.961ZM716.078 173.955C771.161 173.955 771.161 154.241 771.161 147.863C771.161 141.485 771.161 124.09 721.296 124.09H677.809V173.376L715.498 173.955H716.078Z" fill="#1A1A1A"/>
<path d="M1181.11 439.511C1054.13 439.511 973.531 397.183 941.64 313.108L935.262 296.293L1102.25 272.52L1106.31 282.957C1117.33 309.049 1145.74 322.385 1190.39 322.385C1220.54 322.385 1239.09 317.167 1239.09 308.469C1239.09 306.15 1239.09 302.091 1230.97 297.453C1222.86 293.394 1207.2 289.335 1185.17 285.856C1092.4 271.94 1034.41 253.386 1007.16 230.192C979.329 206.419 965.413 177.428 965.413 144.378C965.413 102.63 985.707 67.2603 1025.14 40.0083C1063.4 13.3361 1118.49 0 1189.23 0C1294.76 0 1366.65 34.21 1403.18 100.89L1412.46 117.705L1261.13 154.235L1255.91 144.378C1243.73 122.344 1220.54 111.907 1184.01 111.907C1168.93 111.907 1142.84 113.647 1142.84 126.403C1142.84 128.142 1142.84 131.042 1148.64 134.52C1153.28 136.84 1164.29 140.899 1190.39 145.537C1251.85 155.974 1295.92 165.251 1322.59 172.789C1349.84 181.487 1373.61 195.982 1391.59 216.276C1410.72 237.15 1420 262.663 1420 291.074C1420 335.721 1396.81 372.83 1351.58 400.082C1308.09 426.175 1250.69 439.511 1180.53 439.511H1181.11Z" fill="#1A1A1A"/>
</svg>
