<svg width="28" height="28" viewBox="0 0 28 28" fill="none" xmlns="http://www.w3.org/2000/svg">
<path d="M25.7508 0H2.24918C1.65266 0 1.08057 0.24186 0.658769 0.672373C0.236967 1.10289 0 1.68679 0 2.29562V25.7044C0 26.3132 0.236967 26.8971 0.658769 27.3276C1.08057 27.7581 1.65266 28 2.24918 28H25.7508C26.3473 28 26.9194 27.7581 27.3412 27.3276C27.763 26.8971 28 26.3132 28 25.7044V2.29562C28 1.68679 27.763 1.10289 27.3412 0.672373C26.9194 0.24186 26.3473 0 25.7508 0ZM7.56378 25.0169H2.98291V10.1655H7.56378V25.0169ZM5.27017 8.10746C4.75055 8.10448 4.24344 7.94445 3.81284 7.64759C3.38224 7.35072 3.04745 6.93032 2.85072 6.43944C2.65399 5.94856 2.60414 5.4092 2.70746 4.88943C2.81078 4.36966 3.06264 3.89277 3.43125 3.51896C3.79986 3.14514 4.2687 2.89115 4.77861 2.78904C5.28852 2.68693 5.81664 2.74127 6.29631 2.94521C6.77599 3.14915 7.18573 3.49354 7.47381 3.93493C7.7619 4.37632 7.91543 4.89492 7.91502 5.42528C7.91992 5.78035 7.85473 6.1328 7.72334 6.46162C7.59194 6.79043 7.39703 7.08888 7.15022 7.33917C6.90341 7.58947 6.60975 7.78648 6.28676 7.91848C5.96376 8.05047 5.61803 8.11475 5.27017 8.10746ZM24.4485 25.0298H19.8697V16.9163C19.8697 14.5235 18.8731 13.785 17.5867 13.785C16.2283 13.785 14.8953 14.8302 14.8953 16.9768V25.0298H10.3144V10.1763H14.7197V12.2344H14.7789C15.2211 11.3209 16.77 9.75953 19.1334 9.75953C21.6894 9.75953 24.4506 11.3079 24.4506 15.843L24.4485 25.0298Z" fill="white"/>
</svg>
