<svg width="23" height="26" viewBox="0 0 23 26" fill="none" xmlns="http://www.w3.org/2000/svg">
<path d="M0 6.70647C0.0736498 5.9169 0.0384495 5.12517 0.0568619 4.33452C0.0687759 3.82222 0.153798 3.70199 0.643894 3.53466C4.02745 2.37792 7.41101 1.22119 10.7935 0.0606635C11.0171 -0.0162355 11.2235 -0.0221924 11.4487 0.0552481C14.8561 1.22498 18.2651 2.38984 21.6736 3.55686C22.0857 3.6982 22.1919 3.84442 22.1984 4.26466C22.2292 6.22721 22.2682 8.1903 22.1491 10.1512C22.0197 12.2844 21.8085 14.4072 21.0969 16.4391C20.0549 19.4148 18.1752 21.7586 15.6332 23.5972C14.2539 24.5947 12.7414 25.3388 11.1828 26H11.0745C9.33186 25.2619 7.6547 24.4111 6.15084 23.2414C3.08517 20.857 1.18435 17.7788 0.526379 13.9371C0.154881 11.7645 0.0498219 9.57502 0.0281602 7.37744C0.0265356 7.20794 0.00974776 7.03844 0 6.86893V6.70701V6.70647ZM1.15349 7.38611C1.14645 9.43151 1.2488 11.4699 1.56668 13.4942C1.98367 16.1477 3.0256 18.511 4.82406 20.5163C6.54454 22.4345 8.6663 23.7791 11.0263 24.7712C11.1119 24.807 11.1764 24.7989 11.2543 24.762C11.9378 24.4414 12.6326 24.1441 13.2905 23.7716C15.9701 22.2558 18.1346 20.2385 19.4966 17.429C20.4281 15.5076 20.7676 13.447 20.9539 11.3513C21.1489 9.15966 21.1489 6.96316 21.0914 4.76504C21.0866 4.58308 21.0346 4.49914 20.8586 4.43903C17.6949 3.36028 14.5339 2.27503 11.3729 1.18815C11.2235 1.13671 11.0902 1.11992 10.931 1.17462C7.74676 2.27503 4.56033 3.37057 1.37227 4.46015C1.20547 4.51702 1.14915 4.59446 1.15024 4.76558C1.15673 5.63909 1.15349 6.5126 1.15349 7.38611Z" fill="white"/>
<path d="M19.4375 8.26865C19.3952 10.1061 19.3004 12.1201 18.8856 14.1016C18.2981 16.9068 16.8121 19.1455 14.563 20.8963C13.6148 21.6345 12.5902 22.2442 11.4984 22.7457C11.2396 22.8643 11.0116 22.8594 10.7533 22.7397C8.63044 21.753 6.78432 20.4133 5.36819 18.5271C4.22229 17.0005 3.54157 15.2784 3.24155 13.3971C2.86031 11.0056 2.79695 8.59682 2.82673 6.18208C2.83161 5.77864 2.93991 5.63621 3.31629 5.50678C5.82254 4.64573 8.32934 3.78576 10.8351 2.92254C11.0311 2.85485 11.2163 2.8516 11.4134 2.91929C13.9278 3.78468 16.4433 4.64519 18.9582 5.51003C19.3199 5.63458 19.4315 5.7938 19.4358 6.19887C19.4423 6.82923 19.4375 7.45904 19.4375 8.26919V8.26865ZM3.93906 8.5118C3.97155 9.97938 4.06416 11.4426 4.27211 12.8972C4.50172 14.5018 4.98369 16.0127 5.89132 17.3725C7.17261 19.2923 8.9337 20.6321 10.9878 21.6247C11.115 21.6859 11.2066 21.6534 11.3143 21.602C12.1364 21.2093 12.913 20.7409 13.6408 20.1934C15.9288 18.4718 17.4078 16.2477 17.8951 13.3943C18.2769 11.1567 18.336 8.90171 18.323 6.64023C18.3219 6.4626 18.2179 6.43553 18.0993 6.39437C15.8395 5.61834 13.5791 4.84339 11.3197 4.06519C11.1952 4.02241 11.0831 4.01808 10.9564 4.06195C8.68026 4.84664 6.40362 5.62971 4.12481 6.40682C3.97913 6.45665 3.9331 6.52542 3.93527 6.67543C3.94285 7.28737 3.93852 7.89986 3.93906 8.51234V8.5118Z" fill="white"/>
<path d="M9.79638 15.5733C9.61767 15.5847 9.47903 15.5083 9.35989 15.3892C8.83135 14.8612 8.30064 14.3359 7.77697 13.803C7.53435 13.556 7.52786 13.2289 7.74231 13.0047C7.96651 12.7708 8.29847 12.7735 8.55841 13.0259C8.91366 13.3708 9.26891 13.7158 9.6063 14.0781C9.75143 14.234 9.8267 14.2081 9.96263 14.0705C11.1789 12.8428 12.4028 11.6233 13.624 10.401C13.7258 10.2992 13.8255 10.1941 13.9749 10.1622C14.2186 10.1107 14.426 10.1725 14.5679 10.3804C14.7087 10.5868 14.7 10.805 14.5619 11.0124C14.5175 11.079 14.4563 11.1348 14.3989 11.1922C13.0245 12.5672 11.649 13.9411 10.2751 15.316C10.1392 15.452 10.0022 15.5809 9.79529 15.5738L9.79638 15.5733Z" fill="white"/>
</svg>
