<svg width="30" height="36" viewBox="0 0 30 36" fill="none" xmlns="http://www.w3.org/2000/svg">
<path d="M14.4657 0C14.6018 0 14.7373 0 14.8734 0C14.9143 0.0193824 14.9537 0.0436103 14.9959 0.0567627C19.4641 1.41976 23.9316 2.78206 28.3997 4.14506C29.0784 4.35203 29.3316 4.68638 29.3316 5.39453C29.333 10.3786 29.335 15.3626 29.3309 20.3466C29.3302 21.5227 29.0852 22.6497 28.625 23.7302C27.7564 25.7702 26.3651 27.4122 24.7729 28.8839C21.9378 31.5047 18.7024 33.5121 15.2641 35.2005C14.8523 35.4026 14.4793 35.3984 14.0681 35.1977C12.1914 34.2784 10.3726 33.2553 8.63951 32.0806C6.40067 30.5632 4.29525 28.8846 2.57239 26.756C1.65956 25.6283 0.917591 24.4038 0.44382 23.0159C0.21238 22.3382 0.122527 21.6335 0 20.9343V5.04357C0.155201 4.52163 0.517336 4.26481 1.0231 4.11322C3.71665 3.30677 6.40408 2.47956 9.09286 1.65581C10.8845 1.10687 12.6747 0.551705 14.4657 0Z" fill="#EF4123"/>
<path d="M7.64737 20.9492V18.3831H6.17161V20.9492H3.30469V13.8994H6.17161V16.3151H7.64737V13.8994H10.5237V20.9492H7.64737Z" fill="white"/>
<path d="M11.4258 20.9501V13.9097H15.0635C15.9847 13.9097 16.6708 13.9943 17.1596 14.1635C17.6578 14.3327 18.062 14.6053 18.3628 14.9719C18.6636 15.3479 18.8234 15.7709 18.8234 16.2315C18.8234 16.9364 18.5132 17.5098 17.8928 17.9422C17.3006 18.3558 16.511 18.5626 15.5523 18.5626H14.3491V20.9501H11.4446H11.4258ZM14.9131 16.6826C15.8061 16.6826 15.8061 16.363 15.8061 16.2596C15.8061 16.1563 15.8061 15.8743 14.9977 15.8743H14.2927V16.6732H14.9131V16.6826Z" fill="white"/>
<path d="M22.4503 20.9877C20.3918 20.9877 19.0852 20.3015 18.5682 18.9386L18.4648 18.666L21.172 18.2806L21.2378 18.4498C21.4164 18.8728 21.877 19.089 22.6007 19.089C23.0895 19.089 23.3903 19.0044 23.3903 18.8634C23.3903 18.8258 23.3903 18.76 23.2587 18.6848C23.1271 18.619 22.8733 18.5532 22.5161 18.4968C21.0122 18.2712 20.0722 17.9704 19.6304 17.5944C19.1792 17.209 18.9536 16.739 18.9536 16.2032C18.9536 15.5265 19.2826 14.9531 19.9218 14.5113C20.5422 14.0789 21.4352 13.8627 22.5819 13.8627C24.2927 13.8627 25.4583 14.4173 26.0504 15.4983L26.2008 15.7708L23.7475 16.363L23.6629 16.2032C23.4655 15.846 23.0895 15.6769 22.4973 15.6769C22.2529 15.6769 21.83 15.7051 21.83 15.9118C21.83 15.94 21.83 15.987 21.9239 16.0434C21.9991 16.081 22.1777 16.1468 22.6007 16.222C23.5971 16.3912 24.3115 16.5416 24.7439 16.6638C25.1857 16.8048 25.5711 17.0398 25.8624 17.3688C26.1726 17.7072 26.323 18.1208 26.323 18.5814C26.323 19.3052 25.947 19.9067 25.2139 20.3485C24.5089 20.7715 23.5783 20.9877 22.4409 20.9877H22.4503Z" fill="white"/>
</svg>
