<svg width="21" height="28" viewBox="0 0 21 28" fill="none" xmlns="http://www.w3.org/2000/svg">
<path d="M19.3113 0C19.8126 0.277051 19.8534 0.433024 19.5198 0.830624C17.3086 3.46631 15.0967 6.10199 12.8875 8.73873C12.8271 8.81064 12.693 8.88731 12.7436 8.96503C12.8082 9.0639 12.9746 9.00733 13.094 9.00733C15.216 9.01103 17.3388 9.01156 19.4608 9.00838C19.7902 9.00838 20.0977 9.01949 20.2487 9.29125C20.3933 9.55191 20.2248 9.74278 20.0121 9.93365C13.7695 15.5201 7.52905 21.1082 1.2879 26.6963C1.22751 26.7502 1.17063 26.8063 1.10392 26.8549C0.875706 27.0214 0.514074 27.068 0.302711 26.9622C0.0421954 26.8322 -0.0336421 26.617 0.109607 26.3568C0.523904 25.6029 0.944522 24.8505 1.36303 24.0976C3.10449 20.9649 4.84664 17.8322 6.5874 14.699C6.63515 14.6123 6.71941 14.5325 6.69203 14.4077H6.31565C4.47307 14.4077 2.6305 14.4088 0.788634 14.4077C0.061857 14.4072 -0.183211 14.1095 0.139801 13.6225C3.06025 9.21617 5.9814 4.81085 8.89834 0.403944C9.01139 0.233167 9.15815 0.0962276 9.37373 0H19.3113ZM2.83063 23.875C8.03112 19.226 13.2127 14.5933 18.4054 9.9511C18.246 9.88712 18.1175 9.91144 17.9946 9.91144C15.9189 9.90933 13.8432 9.90933 11.7675 9.91144C11.4522 9.91144 11.1573 9.89241 10.9811 9.65607C10.8041 9.41867 10.9867 9.23732 11.144 9.05121C13.3622 6.42874 15.5805 3.80628 17.7966 1.18275C17.8668 1.09974 17.9841 1.02731 17.9595 0.898829C15.3375 0.898829 12.7253 0.900415 10.1138 0.895128C9.91372 0.895128 9.86035 0.983954 9.79154 1.08758C7.1 5.14871 4.41058 9.20983 1.70992 13.2672C1.55122 13.5062 1.65866 13.5126 1.92971 13.512C3.74911 13.5068 5.5678 13.5089 7.3872 13.5094C8.15962 13.5094 8.37169 13.7526 8.07115 14.2946C6.35216 17.3966 4.63318 20.4991 2.91489 23.6017C2.87206 23.6789 2.7906 23.7508 2.82993 23.8755L2.83063 23.875Z" fill="white"/>
</svg>
