<svg width="27" height="27" viewBox="0 0 27 27" fill="none" xmlns="http://www.w3.org/2000/svg">
<path d="M14.1064 0.000976562H14.2578L14.2841 0.0527344C14.2936 0.0514677 14.3046 0.0497728 14.3154 0.0488281C14.3354 0.0471022 14.3615 0.0458062 14.3896 0.0478516C21.0238 0.529116 26.3053 5.81353 26.789 12.4453C26.7911 12.4742 26.7889 12.5003 26.7871 12.5205C26.7861 12.5305 26.7844 12.54 26.7832 12.5488L26.8339 12.5752V14.2324L26.7734 14.2861C26.7745 14.2951 26.7757 14.3072 26.7783 14.3262C26.7817 14.3519 26.7872 14.4009 26.7832 14.4531L26.7841 14.4541C26.2613 21.2117 20.7784 26.5071 14.0195 26.8193L14.0078 26.8203H12.8076V26.8193C6.02183 26.5073 0.532905 21.1776 0.0360943 14.3945C-0.498711 7.08771 4.97073 0.627302 12.3789 0.0507812L12.5068 0.0546875C12.5292 0.0568607 12.5436 0.0576738 12.5546 0.0585938L12.6045 0H12.7207L14.1064 0.000976562ZM17.0957 20.1504C14.627 20.0045 12.1911 20.0085 9.72164 20.1514C10.1051 21.4416 10.6659 22.6002 11.4384 23.6475L11.582 23.8281C11.9261 24.23 12.358 24.5331 12.8466 24.7598C13.4621 24.968 14.0628 24.8187 14.6377 24.3896C15.909 23.3106 16.572 21.8106 17.0957 20.1504ZM19.123 20.2949C18.7657 21.6614 18.2083 22.9165 17.4658 24.1094C19.3551 23.3958 20.9857 22.2106 22.2666 20.6514C21.2055 20.5015 20.1724 20.3908 19.123 20.2949ZM7.70309 20.2949C6.65233 20.393 5.62045 20.4998 4.55856 20.6514C5.83877 22.2115 7.46952 23.3907 9.35055 24.1055C9.09396 23.7074 8.85028 23.3041 8.64938 22.8574V22.8584C8.26575 22.024 7.95544 21.1903 7.70309 20.2949ZM2.02535 14.4121C2.16608 15.9894 2.60883 17.4807 3.34664 18.8301C4.67394 18.6207 5.93481 18.4795 7.24996 18.3457C6.99876 16.9972 6.8686 15.7295 6.8232 14.4111L2.02535 14.4121ZM20.0009 14.4121C19.956 15.7475 19.8174 17.0352 19.5742 18.3506C20.9106 18.4721 22.1873 18.6302 23.4863 18.8252C24.2297 17.4326 24.6712 15.9432 24.7978 14.4121H20.0009ZM8.8027 14.4121C8.85291 15.7068 8.98989 16.9644 9.23922 18.1982C12.0715 18.0131 14.8103 18.0299 17.5927 18.1953C17.8355 16.9006 17.9784 15.6756 18.0214 14.4121H8.8027ZM17.5898 8.64648C14.7942 8.82509 12.0299 8.82179 9.23336 8.64648C8.9913 9.91076 8.84692 11.1526 8.80367 12.4326L18.0214 12.4297C17.9735 11.1155 17.8278 9.89395 17.5898 8.64648ZM23.4863 8.01758C22.1875 8.21343 20.9104 8.36952 19.5752 8.49219C19.8189 9.80779 19.9566 11.0969 20.0019 12.4326H24.7988C24.6647 10.8696 24.2238 9.39906 23.4863 8.01758ZM3.33883 8.01758C2.60029 9.39732 2.1622 10.8664 2.02535 12.4316L6.82418 12.4277C6.86812 11.0583 7.01206 9.79095 7.25094 8.49316C5.91457 8.37119 4.63755 8.20994 3.33883 8.01758ZM13.9736 2.08398C13.3659 1.87292 12.7601 2.03133 12.2031 2.44238C10.9334 3.50212 10.2568 5.01595 9.72848 6.69434C12.1979 6.83699 14.637 6.83955 17.0996 6.68945C16.7118 5.36821 16.1418 4.24404 15.3945 3.19727C14.9978 2.70568 14.5362 2.32808 13.9736 2.08398ZM9.36031 2.73438C7.47133 3.44801 5.83956 4.63195 4.55953 6.19238C5.60961 6.34109 6.6346 6.44472 7.70211 6.54883C8.05993 5.1803 8.61748 3.92662 9.36031 2.73438ZM17.4775 2.73828C17.7429 3.15011 17.9912 3.56774 18.1963 4.03027H18.1953C18.5709 4.85045 18.8713 5.67083 19.1201 6.54883C20.1703 6.45403 21.2026 6.34281 22.2666 6.19238C20.9872 4.63438 19.3597 3.45266 17.4775 2.73828Z" fill="#D9D9D9"/>
</svg>
